<?xml version="1.0" encoding="UTF-8" standalone="no"?>
<svg
   xmlns:dc="http://purl.org/dc/elements/1.1/"
   xmlns:cc="http://creativecommons.org/ns#"
   xmlns:rdf="http://www.w3.org/1999/02/22-rdf-syntax-ns#"
   xmlns:svg="http://www.w3.org/2000/svg"
   xmlns="http://www.w3.org/2000/svg"
   id="svg8"
   xml:space="preserve"
   viewBox="0 0 1024 768"
   y="0px"
   x="0px"
   version="1.1"><metadata
     id="metadata14"><rdf:RDF><cc:Work
         rdf:about=""><dc:format>image/svg+xml</dc:format><dc:type
           rdf:resource="http://purl.org/dc/dcmitype/StillImage" /></cc:Work></rdf:RDF></metadata><defs
     id="defs12" /><g
     style="stroke-width:0;stroke-miterlimit:2"
     transform="matrix(1.0552,0,0,1.0552,-28.255,-21.193)"
     stroke-miterlimit="2"
     id="logo-group"><path
       id="polygon12"
       d="m 118.83,115.99 v 9.21 H 81.17 V 74.798 h 36.87 v 9.216 H 92.404 v 31.896 z"
       style="font-variant-ligatures:normal;fill:#7c095f"
       transform="matrix(2.5,0,0,2.5,66.466,134.1)" /><path
       id="polygon14"
       d="m 99.46,104.61 2.3,-9.219 h 13.83 v 9.219 z"
       style="font-variant-ligatures:normal"
       transform="matrix(2.5,0,0,2.5,66.466,134.1)" /><path
       class="c1"
       d="m 485.67,422.44 v 24.663 H 406.1 v -126.01 h 28.262 v 101.17 z"
       style="font-variant-ligatures:normal;fill:#7c095f"
       id="path17" /><path
       class="c1"
       d="m 519.31,320.91 46.084,126.01 h -27.35 l -46.09,-126.01 z m 95.229,0 -38.884,105.13 c -17.642,-10.62 -15.84,-26.101 -15.84,-26.101 l 25.92,-79.03 z"
       style="font-variant-ligatures:normal;fill:#7c095f"
       id="path20" /><path
       id="polygon23"
       d="M 126.21,125.2 106.19,74.798 H 94.24 L 73.79,125.2 h 11.521 l 6.768,-18.36 7.777,-20.097 14.334,38.457 z"
       style="font-variant-ligatures:normal;fill:#7c095f"
       transform="matrix(2.5,0,0,2.5,439.09,133.92)" /></g></svg>